<?xml version="1.0" encoding="UTF-8" standalone="no"?><svg xmlns="http://www.w3.org/2000/svg" xmlns:xlink="http://www.w3.org/1999/xlink" contentScriptType="application/ecmascript" contentStyleType="text/css" height="494px" preserveAspectRatio="none" style="width:650px;height:494px;background:#FFFFFF;" version="1.1" viewBox="0 0 650 494" width="650px" zoomAndPan="magnify">
    <defs />
    <g>
        <!--MD5=[0d9486d0e98fbdb275b332ad7d96e237]
class statE-->
        <rect codeLine="23" fill="#D3D3D3" height="48" id="statE" style="stroke:#000000;stroke-width:1.5;" width="92" x="266.5" y="331" />
        <ellipse cx="281.5" cy="347" fill="#A9DCDF" rx="11" ry="11" style="stroke:#000000;stroke-width:1.0;" />
        <path d="M283.6875,348.7656 L279.5469,348.7656 L279.125,349.7969 L279.5469,349.7969 Q280.1563,349.7969 280.4219,350.0313 Q280.6875,350.2656 280.6875,350.6563 Q280.6875,351.0313 280.4219,351.2656 Q280.1563,351.5 279.5469,351.5 L277.25,351.5 Q276.6406,351.5 276.3828,351.2656 Q276.125,351.0313 276.125,350.6406 Q276.125,350.2656 276.3984,350.0234 Q276.6719,349.7813 277.2969,349.7969 L279.9688,343.1406 L278.8594,343.1406 Q278.25,343.1406 277.9844,342.9063 Q277.7188,342.6719 277.7188,342.2813 Q277.7188,341.9063 277.9844,341.6719 Q278.25,341.4375 278.8594,341.4375 L282.5313,341.4375 L285.9219,349.7969 Q286.5156,349.7969 286.7031,349.9375 Q287.0938,350.2031 287.0938,350.6563 Q287.0938,351.0313 286.8359,351.2656 Q286.5781,351.5 285.9688,351.5 L283.6719,351.5 Q283.0625,351.5 282.7969,351.2656 Q282.5313,351.0313 282.5313,350.6406 Q282.5313,350.2656 282.7969,350.0313 Q283.0625,349.7969 283.6719,349.7969 L284.0938,349.7969 L283.6875,348.7656 Z M282.9688,347.0625 L281.6094,343.6875 L280.2344,347.0625 L282.9688,347.0625 Z " fill="#000000" /><text fill="#000000" font-family="sans-serif" font-size="12" font-style="italic" lengthAdjust="spacing" textLength="60" x="295.5" y="351.9102">StaticEntity</text>
        <line style="stroke:#000000;stroke-width:1.5;" x1="267.5" x2="357.5" y1="363" y2="363" />
        <line style="stroke:#000000;stroke-width:1.5;" x1="267.5" x2="357.5" y1="371" y2="371" />
        <!--MD5=[3e05f9b7024bcc6985706240889bf995]
class dynE-->
        <rect codeLine="27" fill="#D3D3D3" height="48" id="dynE" style="stroke:#000000;stroke-width:1.5;" width="111" x="506" y="331" />
        <ellipse cx="521" cy="347" fill="#A9DCDF" rx="11" ry="11" style="stroke:#000000;stroke-width:1.0;" />
        <path d="M523.1875,348.7656 L519.0469,348.7656 L518.625,349.7969 L519.0469,349.7969 Q519.6563,349.7969 519.9219,350.0313 Q520.1875,350.2656 520.1875,350.6563 Q520.1875,351.0313 519.9219,351.2656 Q519.6563,351.5 519.0469,351.5 L516.75,351.5 Q516.1406,351.5 515.8828,351.2656 Q515.625,351.0313 515.625,350.6406 Q515.625,350.2656 515.8984,350.0234 Q516.1719,349.7813 516.7969,349.7969 L519.4688,343.1406 L518.3594,343.1406 Q517.75,343.1406 517.4844,342.9063 Q517.2188,342.6719 517.2188,342.2813 Q517.2188,341.9063 517.4844,341.6719 Q517.75,341.4375 518.3594,341.4375 L522.0313,341.4375 L525.4219,349.7969 Q526.0156,349.7969 526.2031,349.9375 Q526.5938,350.2031 526.5938,350.6563 Q526.5938,351.0313 526.3359,351.2656 Q526.0781,351.5 525.4688,351.5 L523.1719,351.5 Q522.5625,351.5 522.2969,351.2656 Q522.0313,351.0313 522.0313,350.6406 Q522.0313,350.2656 522.2969,350.0313 Q522.5625,349.7969 523.1719,349.7969 L523.5938,349.7969 L523.1875,348.7656 Z M522.4688,347.0625 L521.1094,343.6875 L519.7344,347.0625 L522.4688,347.0625 Z " fill="#000000" /><text fill="#000000" font-family="sans-serif" font-size="12" font-style="italic" lengthAdjust="spacing" textLength="79" x="535" y="351.9102">DynamicEntity</text>
        <line style="stroke:#000000;stroke-width:1.5;" x1="507" x2="616" y1="363" y2="363" />
        <line style="stroke:#000000;stroke-width:1.5;" x1="507" x2="616" y1="371" y2="371" />
        <!--MD5=[03b8f314670f436ff8b02b859e0ae25a]
class viewer-->
        <rect codeLine="31" fill="#D3D3D3" height="48" id="viewer" style="stroke:#000000;stroke-width:1.5;" width="77" x="394" y="331" />
        <ellipse cx="409" cy="347" fill="#A9DCDF" rx="11" ry="11" style="stroke:#000000;stroke-width:1.0;" />
        <path d="M411.1875,348.7656 L407.0469,348.7656 L406.625,349.7969 L407.0469,349.7969 Q407.6563,349.7969 407.9219,350.0313 Q408.1875,350.2656 408.1875,350.6563 Q408.1875,351.0313 407.9219,351.2656 Q407.6563,351.5 407.0469,351.5 L404.75,351.5 Q404.1406,351.5 403.8828,351.2656 Q403.625,351.0313 403.625,350.6406 Q403.625,350.2656 403.8984,350.0234 Q404.1719,349.7813 404.7969,349.7969 L407.4688,343.1406 L406.3594,343.1406 Q405.75,343.1406 405.4844,342.9063 Q405.2188,342.6719 405.2188,342.2813 Q405.2188,341.9063 405.4844,341.6719 Q405.75,341.4375 406.3594,341.4375 L410.0313,341.4375 L413.4219,349.7969 Q414.0156,349.7969 414.2031,349.9375 Q414.5938,350.2031 414.5938,350.6563 Q414.5938,351.0313 414.3359,351.2656 Q414.0781,351.5 413.4688,351.5 L411.1719,351.5 Q410.5625,351.5 410.2969,351.2656 Q410.0313,351.0313 410.0313,350.6406 Q410.0313,350.2656 410.2969,350.0313 Q410.5625,349.7969 411.1719,349.7969 L411.5938,349.7969 L411.1875,348.7656 Z M410.4688,347.0625 L409.1094,343.6875 L407.7344,347.0625 L410.4688,347.0625 Z " fill="#000000" /><text fill="#000000" font-family="sans-serif" font-size="12" font-style="italic" lengthAdjust="spacing" textLength="45" x="423" y="351.9102">Watcher</text>
        <line style="stroke:#000000;stroke-width:1.5;" x1="395" x2="470" y1="363" y2="363" />
        <line style="stroke:#000000;stroke-width:1.5;" x1="395" x2="470" y1="371" y2="371" />
        <!--MD5=[467568f20bbf29da492dca29e9e0779e]
class entity-->
        <rect codeLine="18" fill="#D3D3D3" height="48" id="entity" style="stroke:#000000;stroke-width:1.5;" width="62" x="405.5" y="439" />
        <ellipse cx="420.5" cy="455" fill="#A9DCDF" rx="11" ry="11" style="stroke:#000000;stroke-width:1.0;" />
        <path d="M422.6875,456.7656 L418.5469,456.7656 L418.125,457.7969 L418.5469,457.7969 Q419.1563,457.7969 419.4219,458.0313 Q419.6875,458.2656 419.6875,458.6563 Q419.6875,459.0313 419.4219,459.2656 Q419.1563,459.5 418.5469,459.5 L416.25,459.5 Q415.6406,459.5 415.3828,459.2656 Q415.125,459.0313 415.125,458.6406 Q415.125,458.2656 415.3984,458.0234 Q415.6719,457.7813 416.2969,457.7969 L418.9688,451.1406 L417.8594,451.1406 Q417.25,451.1406 416.9844,450.9063 Q416.7188,450.6719 416.7188,450.2813 Q416.7188,449.9063 416.9844,449.6719 Q417.25,449.4375 417.8594,449.4375 L421.5313,449.4375 L424.9219,457.7969 Q425.5156,457.7969 425.7031,457.9375 Q426.0938,458.2031 426.0938,458.6563 Q426.0938,459.0313 425.8359,459.2656 Q425.5781,459.5 424.9688,459.5 L422.6719,459.5 Q422.0625,459.5 421.7969,459.2656 Q421.5313,459.0313 421.5313,458.6406 Q421.5313,458.2656 421.7969,458.0313 Q422.0625,457.7969 422.6719,457.7969 L423.0938,457.7969 L422.6875,456.7656 Z M421.9688,455.0625 L420.6094,451.6875 L419.2344,455.0625 L421.9688,455.0625 Z " fill="#000000" /><text fill="#000000" font-family="sans-serif" font-size="12" font-style="italic" lengthAdjust="spacing" textLength="30" x="434.5" y="459.9102">Entity</text>
        <line style="stroke:#000000;stroke-width:1.5;" x1="406.5" x2="466.5" y1="471" y2="471" />
        <line style="stroke:#000000;stroke-width:1.5;" x1="406.5" x2="466.5" y1="479" y2="479" />
        <!--MD5=[d095832e7011aebf16be8b185990917e]
class glass-->
        <rect codeLine="36" fill="#D3D3D3" height="48" id="glass" style="stroke:#000000;stroke-width:1.5;" width="65" x="109" y="223" />
        <ellipse cx="124" cy="239" fill="#ADD1B2" rx="11" ry="11" style="stroke:#000000;stroke-width:1.0;" />
        <path d="M126.7656,234.875 Q126.9219,234.6563 127.1094,234.5469 Q127.2969,234.4375 127.5156,234.4375 Q127.8906,234.4375 128.125,234.6953 Q128.3594,234.9531 128.3594,235.5625 L128.3594,237.0156 Q128.3594,237.625 128.125,237.8906 Q127.8906,238.1563 127.5156,238.1563 Q127.1719,238.1563 126.9688,237.9531 Q126.7656,237.7656 126.6563,237.25 Q126.6094,236.8906 126.4219,236.7031 Q126.0938,236.3281 125.4844,236.1094 Q124.875,235.8906 124.25,235.8906 Q123.4844,235.8906 122.8516,236.2188 Q122.2188,236.5469 121.7266,237.2969 Q121.2344,238.0469 121.2344,239.0781 L121.2344,240.1719 Q121.2344,241.4063 122.125,242.2266 Q123.0156,243.0469 124.6094,243.0469 Q125.5469,243.0469 126.2031,242.7969 Q126.5938,242.6406 127.0156,242.2031 Q127.2813,241.9375 127.4297,241.8594 Q127.5781,241.7813 127.7813,241.7813 Q128.1094,241.7813 128.3672,242.0391 Q128.625,242.2969 128.625,242.6406 Q128.625,242.9844 128.2813,243.3906 Q127.7813,243.9688 126.9844,244.2969 Q125.9063,244.75 124.6094,244.75 Q123.0938,244.75 121.8906,244.125 Q120.9063,243.625 120.2188,242.5547 Q119.5313,241.4844 119.5313,240.2031 L119.5313,239.0469 Q119.5313,237.7188 120.1484,236.5703 Q120.7656,235.4219 121.8594,234.8047 Q122.9531,234.1875 124.1875,234.1875 Q124.9219,234.1875 125.5703,234.3516 Q126.2188,234.5156 126.7656,234.875 Z " fill="#000000" /><text fill="#000000" font-family="sans-serif" font-size="12" lengthAdjust="spacing" textLength="33" x="138" y="243.9102">Glass</text>
        <line style="stroke:#000000;stroke-width:1.5;" x1="110" x2="173" y1="255" y2="255" />
        <line style="stroke:#000000;stroke-width:1.5;" x1="110" x2="173" y1="263" y2="263" />
        <!--MD5=[5a3d999db1fbe9a1816e4ddb607c3c34]
class wall-->
        <rect codeLine="40" fill="#D3D3D3" height="48" id="wall" style="stroke:#000000;stroke-width:1.5;" width="56" x="209.5" y="223" />
        <ellipse cx="224.5" cy="239" fill="#ADD1B2" rx="11" ry="11" style="stroke:#000000;stroke-width:1.0;" />
        <path d="M227.2656,234.875 Q227.4219,234.6563 227.6094,234.5469 Q227.7969,234.4375 228.0156,234.4375 Q228.3906,234.4375 228.625,234.6953 Q228.8594,234.9531 228.8594,235.5625 L228.8594,237.0156 Q228.8594,237.625 228.625,237.8906 Q228.3906,238.1563 228.0156,238.1563 Q227.6719,238.1563 227.4688,237.9531 Q227.2656,237.7656 227.1563,237.25 Q227.1094,236.8906 226.9219,236.7031 Q226.5938,236.3281 225.9844,236.1094 Q225.375,235.8906 224.75,235.8906 Q223.9844,235.8906 223.3516,236.2188 Q222.7188,236.5469 222.2266,237.2969 Q221.7344,238.0469 221.7344,239.0781 L221.7344,240.1719 Q221.7344,241.4063 222.625,242.2266 Q223.5156,243.0469 225.1094,243.0469 Q226.0469,243.0469 226.7031,242.7969 Q227.0938,242.6406 227.5156,242.2031 Q227.7813,241.9375 227.9297,241.8594 Q228.0781,241.7813 228.2813,241.7813 Q228.6094,241.7813 228.8672,242.0391 Q229.125,242.2969 229.125,242.6406 Q229.125,242.9844 228.7813,243.3906 Q228.2813,243.9688 227.4844,244.2969 Q226.4063,244.75 225.1094,244.75 Q223.5938,244.75 222.3906,244.125 Q221.4063,243.625 220.7188,242.5547 Q220.0313,241.4844 220.0313,240.2031 L220.0313,239.0469 Q220.0313,237.7188 220.6484,236.5703 Q221.2656,235.4219 222.3594,234.8047 Q223.4531,234.1875 224.6875,234.1875 Q225.4219,234.1875 226.0703,234.3516 Q226.7188,234.5156 227.2656,234.875 Z " fill="#000000" /><text fill="#000000" font-family="sans-serif" font-size="12" lengthAdjust="spacing" textLength="24" x="238.5" y="243.9102">Wall</text>
        <line style="stroke:#000000;stroke-width:1.5;" x1="210.5" x2="264.5" y1="255" y2="255" />
        <line style="stroke:#000000;stroke-width:1.5;" x1="210.5" x2="264.5" y1="263" y2="263" />
        <!--MD5=[6ed428f380fba1fe169d41e4a7e705be]
class cam-->
        <rect codeLine="44" fill="#D3D3D3" height="48" id="cam" style="stroke:#000000;stroke-width:1.5;" width="64" x="387.5" y="223" />
        <ellipse cx="402.5" cy="239" fill="#ADD1B2" rx="11" ry="11" style="stroke:#000000;stroke-width:1.0;" />
        <path d="M405.2656,234.875 Q405.4219,234.6563 405.6094,234.5469 Q405.7969,234.4375 406.0156,234.4375 Q406.3906,234.4375 406.625,234.6953 Q406.8594,234.9531 406.8594,235.5625 L406.8594,237.0156 Q406.8594,237.625 406.625,237.8906 Q406.3906,238.1563 406.0156,238.1563 Q405.6719,238.1563 405.4688,237.9531 Q405.2656,237.7656 405.1563,237.25 Q405.1094,236.8906 404.9219,236.7031 Q404.5938,236.3281 403.9844,236.1094 Q403.375,235.8906 402.75,235.8906 Q401.9844,235.8906 401.3516,236.2188 Q400.7188,236.5469 400.2266,237.2969 Q399.7344,238.0469 399.7344,239.0781 L399.7344,240.1719 Q399.7344,241.4063 400.625,242.2266 Q401.5156,243.0469 403.1094,243.0469 Q404.0469,243.0469 404.7031,242.7969 Q405.0938,242.6406 405.5156,242.2031 Q405.7813,241.9375 405.9297,241.8594 Q406.0781,241.7813 406.2813,241.7813 Q406.6094,241.7813 406.8672,242.0391 Q407.125,242.2969 407.125,242.6406 Q407.125,242.9844 406.7813,243.3906 Q406.2813,243.9688 405.4844,244.2969 Q404.4063,244.75 403.1094,244.75 Q401.5938,244.75 400.3906,244.125 Q399.4063,243.625 398.7188,242.5547 Q398.0313,241.4844 398.0313,240.2031 L398.0313,239.0469 Q398.0313,237.7188 398.6484,236.5703 Q399.2656,235.4219 400.3594,234.8047 Q401.4531,234.1875 402.6875,234.1875 Q403.4219,234.1875 404.0703,234.3516 Q404.7188,234.5156 405.2656,234.875 Z " fill="#000000" /><text fill="#000000" font-family="sans-serif" font-size="12" lengthAdjust="spacing" textLength="32" x="416.5" y="243.9102">CCTV</text>
        <line style="stroke:#000000;stroke-width:1.5;" x1="388.5" x2="450.5" y1="255" y2="255" />
        <line style="stroke:#000000;stroke-width:1.5;" x1="388.5" x2="450.5" y1="263" y2="263" />
        <!--MD5=[6bf004cf7c42bce4b93b75d9152c8f08]
class exit-->
        <rect codeLine="47" fill="#D3D3D3" height="48" id="exit" style="stroke:#000000;stroke-width:1.5;" width="51" x="301" y="223" />
        <ellipse cx="316" cy="239" fill="#ADD1B2" rx="11" ry="11" style="stroke:#000000;stroke-width:1.0;" />
        <path d="M318.7656,234.875 Q318.9219,234.6563 319.1094,234.5469 Q319.2969,234.4375 319.5156,234.4375 Q319.8906,234.4375 320.125,234.6953 Q320.3594,234.9531 320.3594,235.5625 L320.3594,237.0156 Q320.3594,237.625 320.125,237.8906 Q319.8906,238.1563 319.5156,238.1563 Q319.1719,238.1563 318.9688,237.9531 Q318.7656,237.7656 318.6563,237.25 Q318.6094,236.8906 318.4219,236.7031 Q318.0938,236.3281 317.4844,236.1094 Q316.875,235.8906 316.25,235.8906 Q315.4844,235.8906 314.8516,236.2188 Q314.2188,236.5469 313.7266,237.2969 Q313.2344,238.0469 313.2344,239.0781 L313.2344,240.1719 Q313.2344,241.4063 314.125,242.2266 Q315.0156,243.0469 316.6094,243.0469 Q317.5469,243.0469 318.2031,242.7969 Q318.5938,242.6406 319.0156,242.2031 Q319.2813,241.9375 319.4297,241.8594 Q319.5781,241.7813 319.7813,241.7813 Q320.1094,241.7813 320.3672,242.0391 Q320.625,242.2969 320.625,242.6406 Q320.625,242.9844 320.2813,243.3906 Q319.7813,243.9688 318.9844,244.2969 Q317.9063,244.75 316.6094,244.75 Q315.0938,244.75 313.8906,244.125 Q312.9063,243.625 312.2188,242.5547 Q311.5313,241.4844 311.5313,240.2031 L311.5313,239.0469 Q311.5313,237.7188 312.1484,236.5703 Q312.7656,235.4219 313.8594,234.8047 Q314.9531,234.1875 316.1875,234.1875 Q316.9219,234.1875 317.5703,234.3516 Q318.2188,234.5156 318.7656,234.875 Z " fill="#000000" /><text fill="#000000" font-family="sans-serif" font-size="12" lengthAdjust="spacing" textLength="19" x="330" y="243.9102">Exit</text>
        <line style="stroke:#000000;stroke-width:1.5;" x1="302" x2="351" y1="255" y2="255" />
        <line style="stroke:#000000;stroke-width:1.5;" x1="302" x2="351" y1="263" y2="263" />
        <!--MD5=[b60602f65c21a7f2c0db92428b142559]
class money-->
        <rect codeLine="51" fill="#D3D3D3" height="48" id="money" style="stroke:#000000;stroke-width:1.5;" width="67" x="7" y="223" />
        <ellipse cx="22" cy="239" fill="#ADD1B2" rx="11" ry="11" style="stroke:#000000;stroke-width:1.0;" />
        <path d="M24.7656,234.875 Q24.9219,234.6563 25.1094,234.5469 Q25.2969,234.4375 25.5156,234.4375 Q25.8906,234.4375 26.125,234.6953 Q26.3594,234.9531 26.3594,235.5625 L26.3594,237.0156 Q26.3594,237.625 26.125,237.8906 Q25.8906,238.1563 25.5156,238.1563 Q25.1719,238.1563 24.9688,237.9531 Q24.7656,237.7656 24.6563,237.25 Q24.6094,236.8906 24.4219,236.7031 Q24.0938,236.3281 23.4844,236.1094 Q22.875,235.8906 22.25,235.8906 Q21.4844,235.8906 20.8516,236.2188 Q20.2188,236.5469 19.7266,237.2969 Q19.2344,238.0469 19.2344,239.0781 L19.2344,240.1719 Q19.2344,241.4063 20.125,242.2266 Q21.0156,243.0469 22.6094,243.0469 Q23.5469,243.0469 24.2031,242.7969 Q24.5938,242.6406 25.0156,242.2031 Q25.2813,241.9375 25.4297,241.8594 Q25.5781,241.7813 25.7813,241.7813 Q26.1094,241.7813 26.3672,242.0391 Q26.625,242.2969 26.625,242.6406 Q26.625,242.9844 26.2813,243.3906 Q25.7813,243.9688 24.9844,244.2969 Q23.9063,244.75 22.6094,244.75 Q21.0938,244.75 19.8906,244.125 Q18.9063,243.625 18.2188,242.5547 Q17.5313,241.4844 17.5313,240.2031 L17.5313,239.0469 Q17.5313,237.7188 18.1484,236.5703 Q18.7656,235.4219 19.8594,234.8047 Q20.9531,234.1875 22.1875,234.1875 Q22.9219,234.1875 23.5703,234.3516 Q24.2188,234.5156 24.7656,234.875 Z " fill="#000000" /><text fill="#000000" font-family="sans-serif" font-size="12" lengthAdjust="spacing" textLength="35" x="36" y="243.9102">Money</text>
        <line style="stroke:#000000;stroke-width:1.5;" x1="8" x2="73" y1="255" y2="255" />
        <line style="stroke:#000000;stroke-width:1.5;" x1="8" x2="73" y1="263" y2="263" />
        <!--MD5=[6f87453c14bee8fa3e6952c3a8a331f1]
class charac-->
        <rect codeLine="55" fill="#D3D3D3" height="48" id="charac" style="stroke:#000000;stroke-width:1.5;" width="86" x="557.5" y="223" />
        <ellipse cx="572.5" cy="239" fill="#A9DCDF" rx="11" ry="11" style="stroke:#000000;stroke-width:1.0;" />
        <path d="M574.6875,240.7656 L570.5469,240.7656 L570.125,241.7969 L570.5469,241.7969 Q571.1563,241.7969 571.4219,242.0313 Q571.6875,242.2656 571.6875,242.6563 Q571.6875,243.0313 571.4219,243.2656 Q571.1563,243.5 570.5469,243.5 L568.25,243.5 Q567.6406,243.5 567.3828,243.2656 Q567.125,243.0313 567.125,242.6406 Q567.125,242.2656 567.3984,242.0234 Q567.6719,241.7813 568.2969,241.7969 L570.9688,235.1406 L569.8594,235.1406 Q569.25,235.1406 568.9844,234.9063 Q568.7188,234.6719 568.7188,234.2813 Q568.7188,233.9063 568.9844,233.6719 Q569.25,233.4375 569.8594,233.4375 L573.5313,233.4375 L576.9219,241.7969 Q577.5156,241.7969 577.7031,241.9375 Q578.0938,242.2031 578.0938,242.6563 Q578.0938,243.0313 577.8359,243.2656 Q577.5781,243.5 576.9688,243.5 L574.6719,243.5 Q574.0625,243.5 573.7969,243.2656 Q573.5313,243.0313 573.5313,242.6406 Q573.5313,242.2656 573.7969,242.0313 Q574.0625,241.7969 574.6719,241.7969 L575.0938,241.7969 L574.6875,240.7656 Z M573.9688,239.0625 L572.6094,235.6875 L571.2344,239.0625 L573.9688,239.0625 Z " fill="#000000" /><text fill="#000000" font-family="sans-serif" font-size="12" font-style="italic" lengthAdjust="spacing" textLength="54" x="586.5" y="243.9102">Character</text>
        <line style="stroke:#000000;stroke-width:1.5;" x1="558.5" x2="642.5" y1="255" y2="255" />
        <line style="stroke:#000000;stroke-width:1.5;" x1="558.5" x2="642.5" y1="263" y2="263" />
        <!--MD5=[308de564e57c8d51c168255b0b03c096]
class player-->
        <rect codeLine="59" fill="#D3D3D3" height="48" id="player" style="stroke:#000000;stroke-width:1.5;" width="66" x="575.5" y="115" />
        <ellipse cx="590.5" cy="131" fill="#ADD1B2" rx="11" ry="11" style="stroke:#000000;stroke-width:1.0;" />
        <path d="M593.2656,126.875 Q593.4219,126.6563 593.6094,126.5469 Q593.7969,126.4375 594.0156,126.4375 Q594.3906,126.4375 594.625,126.6953 Q594.8594,126.9531 594.8594,127.5625 L594.8594,129.0156 Q594.8594,129.625 594.625,129.8906 Q594.3906,130.1563 594.0156,130.1563 Q593.6719,130.1563 593.4688,129.9531 Q593.2656,129.7656 593.1563,129.25 Q593.1094,128.8906 592.9219,128.7031 Q592.5938,128.3281 591.9844,128.1094 Q591.375,127.8906 590.75,127.8906 Q589.9844,127.8906 589.3516,128.2188 Q588.7188,128.5469 588.2266,129.2969 Q587.7344,130.0469 587.7344,131.0781 L587.7344,132.1719 Q587.7344,133.4063 588.625,134.2266 Q589.5156,135.0469 591.1094,135.0469 Q592.0469,135.0469 592.7031,134.7969 Q593.0938,134.6406 593.5156,134.2031 Q593.7813,133.9375 593.9297,133.8594 Q594.0781,133.7813 594.2813,133.7813 Q594.6094,133.7813 594.8672,134.0391 Q595.125,134.2969 595.125,134.6406 Q595.125,134.9844 594.7813,135.3906 Q594.2813,135.9688 593.4844,136.2969 Q592.4063,136.75 591.1094,136.75 Q589.5938,136.75 588.3906,136.125 Q587.4063,135.625 586.7188,134.5547 Q586.0313,133.4844 586.0313,132.2031 L586.0313,131.0469 Q586.0313,129.7188 586.6484,128.5703 Q587.2656,127.4219 588.3594,126.8047 Q589.4531,126.1875 590.6875,126.1875 Q591.4219,126.1875 592.0703,126.3516 Q592.7188,126.5156 593.2656,126.875 Z " fill="#000000" /><text fill="#000000" font-family="sans-serif" font-size="12" lengthAdjust="spacing" textLength="34" x="604.5" y="135.9102">Player</text>
        <line style="stroke:#000000;stroke-width:1.5;" x1="576.5" x2="640.5" y1="147" y2="147" />
        <line style="stroke:#000000;stroke-width:1.5;" x1="576.5" x2="640.5" y1="155" y2="155" />
        <!--MD5=[31e5f5b70adf7fa737813cc1cba51ca8]
class enemy-->
        <rect codeLine="63" fill="#D3D3D3" height="48" id="enemy" style="stroke:#000000;stroke-width:1.5;" width="71" x="469" y="115" />
        <ellipse cx="484" cy="131" fill="#A9DCDF" rx="11" ry="11" style="stroke:#000000;stroke-width:1.0;" />
        <path d="M486.1875,132.7656 L482.0469,132.7656 L481.625,133.7969 L482.0469,133.7969 Q482.6563,133.7969 482.9219,134.0313 Q483.1875,134.2656 483.1875,134.6563 Q483.1875,135.0313 482.9219,135.2656 Q482.6563,135.5 482.0469,135.5 L479.75,135.5 Q479.1406,135.5 478.8828,135.2656 Q478.625,135.0313 478.625,134.6406 Q478.625,134.2656 478.8984,134.0234 Q479.1719,133.7813 479.7969,133.7969 L482.4688,127.1406 L481.3594,127.1406 Q480.75,127.1406 480.4844,126.9063 Q480.2188,126.6719 480.2188,126.2813 Q480.2188,125.9063 480.4844,125.6719 Q480.75,125.4375 481.3594,125.4375 L485.0313,125.4375 L488.4219,133.7969 Q489.0156,133.7969 489.2031,133.9375 Q489.5938,134.2031 489.5938,134.6563 Q489.5938,135.0313 489.3359,135.2656 Q489.0781,135.5 488.4688,135.5 L486.1719,135.5 Q485.5625,135.5 485.2969,135.2656 Q485.0313,135.0313 485.0313,134.6406 Q485.0313,134.2656 485.2969,134.0313 Q485.5625,133.7969 486.1719,133.7969 L486.5938,133.7969 L486.1875,132.7656 Z M485.4688,131.0625 L484.1094,127.6875 L482.7344,131.0625 L485.4688,131.0625 Z " fill="#000000" /><text fill="#000000" font-family="sans-serif" font-size="12" font-style="italic" lengthAdjust="spacing" textLength="39" x="498" y="135.9102">Enemy</text>
        <line style="stroke:#000000;stroke-width:1.5;" x1="470" x2="539" y1="147" y2="147" />
        <line style="stroke:#000000;stroke-width:1.5;" x1="470" x2="539" y1="155" y2="155" />
        <!--MD5=[c48f5c3425ec2ca0ff9821f72dfef99f]
class guard-->
        <rect codeLine="67" fill="#D3D3D3" height="48" id="guard" style="stroke:#000000;stroke-width:1.5;" width="66" x="423.5" y="7" />
        <ellipse cx="438.5" cy="23" fill="#ADD1B2" rx="11" ry="11" style="stroke:#000000;stroke-width:1.0;" />
        <path d="M441.2656,18.875 Q441.4219,18.6563 441.6094,18.5469 Q441.7969,18.4375 442.0156,18.4375 Q442.3906,18.4375 442.625,18.6953 Q442.8594,18.9531 442.8594,19.5625 L442.8594,21.0156 Q442.8594,21.625 442.625,21.8906 Q442.3906,22.1563 442.0156,22.1563 Q441.6719,22.1563 441.4688,21.9531 Q441.2656,21.7656 441.1563,21.25 Q441.1094,20.8906 440.9219,20.7031 Q440.5938,20.3281 439.9844,20.1094 Q439.375,19.8906 438.75,19.8906 Q437.9844,19.8906 437.3516,20.2188 Q436.7188,20.5469 436.2266,21.2969 Q435.7344,22.0469 435.7344,23.0781 L435.7344,24.1719 Q435.7344,25.4063 436.625,26.2266 Q437.5156,27.0469 439.1094,27.0469 Q440.0469,27.0469 440.7031,26.7969 Q441.0938,26.6406 441.5156,26.2031 Q441.7813,25.9375 441.9297,25.8594 Q442.0781,25.7813 442.2813,25.7813 Q442.6094,25.7813 442.8672,26.0391 Q443.125,26.2969 443.125,26.6406 Q443.125,26.9844 442.7813,27.3906 Q442.2813,27.9688 441.4844,28.2969 Q440.4063,28.75 439.1094,28.75 Q437.5938,28.75 436.3906,28.125 Q435.4063,27.625 434.7188,26.5547 Q434.0313,25.4844 434.0313,24.2031 L434.0313,23.0469 Q434.0313,21.7188 434.6484,20.5703 Q435.2656,19.4219 436.3594,18.8047 Q437.4531,18.1875 438.6875,18.1875 Q439.4219,18.1875 440.0703,18.3516 Q440.7188,18.5156 441.2656,18.875 Z " fill="#000000" /><text fill="#000000" font-family="sans-serif" font-size="12" lengthAdjust="spacing" textLength="34" x="452.5" y="27.9102">Guard</text>
        <line style="stroke:#000000;stroke-width:1.5;" x1="424.5" x2="488.5" y1="39" y2="39" />
        <line style="stroke:#000000;stroke-width:1.5;" x1="424.5" x2="488.5" y1="47" y2="47" />
        <!--MD5=[b7bc7d3b9c7563b2b0881830d0c4aa0f]
class cop-->
        <rect codeLine="69" fill="#D3D3D3" height="48" id="cop" style="stroke:#000000;stroke-width:1.5;" width="55" x="525" y="7" />
        <ellipse cx="540" cy="23" fill="#ADD1B2" rx="11" ry="11" style="stroke:#000000;stroke-width:1.0;" />
        <path d="M542.7656,18.875 Q542.9219,18.6563 543.1094,18.5469 Q543.2969,18.4375 543.5156,18.4375 Q543.8906,18.4375 544.125,18.6953 Q544.3594,18.9531 544.3594,19.5625 L544.3594,21.0156 Q544.3594,21.625 544.125,21.8906 Q543.8906,22.1563 543.5156,22.1563 Q543.1719,22.1563 542.9688,21.9531 Q542.7656,21.7656 542.6563,21.25 Q542.6094,20.8906 542.4219,20.7031 Q542.0938,20.3281 541.4844,20.1094 Q540.875,19.8906 540.25,19.8906 Q539.4844,19.8906 538.8516,20.2188 Q538.2188,20.5469 537.7266,21.2969 Q537.2344,22.0469 537.2344,23.0781 L537.2344,24.1719 Q537.2344,25.4063 538.125,26.2266 Q539.0156,27.0469 540.6094,27.0469 Q541.5469,27.0469 542.2031,26.7969 Q542.5938,26.6406 543.0156,26.2031 Q543.2813,25.9375 543.4297,25.8594 Q543.5781,25.7813 543.7813,25.7813 Q544.1094,25.7813 544.3672,26.0391 Q544.625,26.2969 544.625,26.6406 Q544.625,26.9844 544.2813,27.3906 Q543.7813,27.9688 542.9844,28.2969 Q541.9063,28.75 540.6094,28.75 Q539.0938,28.75 537.8906,28.125 Q536.9063,27.625 536.2188,26.5547 Q535.5313,25.4844 535.5313,24.2031 L535.5313,23.0469 Q535.5313,21.7188 536.1484,20.5703 Q536.7656,19.4219 537.8594,18.8047 Q538.9531,18.1875 540.1875,18.1875 Q540.9219,18.1875 541.5703,18.3516 Q542.2188,18.5156 542.7656,18.875 Z " fill="#000000" /><text fill="#000000" font-family="sans-serif" font-size="12" lengthAdjust="spacing" textLength="23" x="554" y="27.9102">Cop</text>
        <line style="stroke:#000000;stroke-width:1.5;" x1="526" x2="579" y1="39" y2="39" />
        <line style="stroke:#000000;stroke-width:1.5;" x1="526" x2="579" y1="47" y2="47" />
        <!--MD5=[8906dc4ed260a2be11ed6f699dd04882]
link statE to entity-->
        <path codeLine="71" d="M339.41,379 C355.3,392.59 375.79,410.1 393.84,425.53 " fill="none" id="statE-to-entity" style="stroke:#000000;stroke-width:1.0;stroke-dasharray:7.0,7.0;" />
        <polygon fill="none" points="398.56,420.36,409.22,438.68,389.47,431,398.56,420.36" style="stroke:#000000;stroke-width:1.0;" />
        <!--MD5=[2c4af9bbb56e77c28ecbea5c52f07905]
link dynE to entity-->
        <path codeLine="72" d="M534.38,379 C518.35,392.59 497.7,410.1 479.5,425.53 " fill="none" id="dynE-to-entity" style="stroke:#000000;stroke-width:1.0;stroke-dasharray:7.0,7.0;" />
        <polygon fill="none" points="483.78,431.08,464,438.68,474.73,420.4,483.78,431.08" style="stroke:#000000;stroke-width:1.0;" />
        <!--MD5=[e0236dbbededc9b97b28e39de761e8f2]
link glass to statE-->
        <path codeLine="74" d="M174.07,268.19 C197.75,282.87 230.38,303.1 258.01,320.22 " fill="none" id="glass-to-statE" style="stroke:#000000;stroke-width:1.0;stroke-dasharray:7.0,7.0;" />
        <polygon fill="none" points="261.99,314.45,275.3,330.94,254.61,326.35,261.99,314.45" style="stroke:#000000;stroke-width:1.0;" />
        <!--MD5=[a8515ea9f5828c7b88ad1d15bd775834]
link wall to statE-->
        <path codeLine="75" d="M253.77,271 C262.66,283.55 273.91,299.46 284.18,313.97 " fill="none" id="wall-to-statE" style="stroke:#000000;stroke-width:1.0;stroke-dasharray:7.0,7.0;" />
        <polygon fill="none" points="290.16,310.31,296,330.68,278.73,318.4,290.16,310.31" style="stroke:#000000;stroke-width:1.0;" />
        <!--MD5=[f0f275c38256798e13d8e283235e9553]
link cam to statE-->
        <path codeLine="76" d="M396.28,271 C382.91,284.24 365.78,301.21 350.5,316.35 " fill="none" id="cam-to-statE" style="stroke:#000000;stroke-width:1.0;stroke-dasharray:7.0,7.0;" />
        <polygon fill="none" points="355.18,321.58,336.04,330.68,345.32,311.63,355.18,321.58" style="stroke:#000000;stroke-width:1.0;" />
        <!--MD5=[3e539030f2798b2efe2239da2d920b74]
link exit to statE-->
        <path codeLine="77" d="M323.46,271 C321.93,282.59 320.02,297.03 318.23,310.6 " fill="none" id="exit-to-statE" style="stroke:#000000;stroke-width:1.0;stroke-dasharray:7.0,7.0;" />
        <polygon fill="none" points="325.14,311.77,315.58,330.68,311.26,309.93,325.14,311.77" style="stroke:#000000;stroke-width:1.0;" />
        <!--MD5=[55750a4455ee0dc45fba1d7e41773b43]
link money to statE-->
        <path codeLine="78" d="M74.11,263.53 C79.88,266.09 85.84,268.67 91.5,271 C143.52,292.47 203.33,314.79 247.59,330.87 " fill="none" id="money-to-statE" style="stroke:#000000;stroke-width:1.0;stroke-dasharray:7.0,7.0;" />
        <polygon fill="none" points="250.02,324.31,266.45,337.68,245.26,337.47,250.02,324.31" style="stroke:#000000;stroke-width:1.0;" />
        <!--MD5=[fc9ddac866ffe84e1e3058b35b661b3c]
link charac to dynE-->
        <path codeLine="80" d="M592.04,271 C587.67,282.86 582.21,297.72 577.11,311.57 " fill="none" id="charac-to-dynE" style="stroke:#000000;stroke-width:1.0;stroke-dasharray:7.0,7.0;" />
        <polygon fill="none" points="583.56,314.33,570.08,330.68,570.42,309.49,583.56,314.33" style="stroke:#000000;stroke-width:1.0;" />
        <!--MD5=[3b331ed3e70760ec621f3b5b2f53473b]
link enemy to charac-->
        <path codeLine="82" d="M525.33,163 C537.07,175.97 552.05,192.51 565.55,207.41 " fill="none" id="enemy-to-charac" style="stroke:#000000;stroke-width:1.0;stroke-dasharray:7.0,7.0;" />
        <polygon fill="none" points="571.14,203.16,579.38,222.68,560.76,212.55,571.14,203.16" style="stroke:#000000;stroke-width:1.0;" />
        <!--MD5=[95946c297c5455359525354eff01760b]
link guard to enemy-->
        <path codeLine="84" d="M466.92,55 C472.35,67 479.17,82.06 485.5,96.05 " fill="none" id="guard-to-enemy" style="stroke:#000000;stroke-width:1.0;stroke-dasharray:7.0,7.0;" />
        <polygon fill="none" points="492.07,93.57,493.94,114.68,479.31,99.35,492.07,93.57" style="stroke:#000000;stroke-width:1.0;" />
        <!--MD5=[74cb6cb4fb33e3d36817468504536c30]
link cop to enemy-->
        <path codeLine="85" d="M542.08,55 C536.65,67 529.83,82.06 523.5,96.05 " fill="none" id="cop-to-enemy" style="stroke:#000000;stroke-width:1.0;stroke-dasharray:7.0,7.0;" />
        <polygon fill="none" points="529.69,99.35,515.06,114.68,516.93,93.57,529.69,99.35" style="stroke:#000000;stroke-width:1.0;" />
        <!--MD5=[0d8a4c67b23941586e269b4ff76de9e3]
link player to charac-->
        <path codeLine="86" d="M606.76,163 C605.89,174.59 604.8,189.03 603.78,202.6 " fill="none" id="player-to-charac" style="stroke:#000000;stroke-width:1.0;stroke-dasharray:7.0,7.0;" />
        <polygon fill="none" points="610.75,203.26,602.26,222.68,596.79,202.21,610.75,203.26" style="stroke:#000000;stroke-width:1.0;" />
        <!--MD5=[6e824e2d2d23bf925724e2a907024810]
link cam to viewer-->
        <path codeLine="88" d="M422.32,271 C423.74,282.59 425.51,297.03 427.18,310.6 " fill="none" id="cam-to-viewer" style="stroke:#000000;stroke-width:1.0;stroke-dasharray:7.0,7.0;" />
        <polygon fill="none" points="434.15,309.98,429.64,330.68,420.26,311.68,434.15,309.98" style="stroke:#000000;stroke-width:1.0;" />
        <!--MD5=[7c9927154f2d8214adf426f1f5da468e]
link enemy to viewer-->
        <path codeLine="89" d="M499.22,163.02 C492.92,189.42 481.59,233.85 468.5,271 C463.68,284.67 457.66,299.28 451.93,312.36 " fill="none" id="enemy-to-viewer" style="stroke:#000000;stroke-width:1.0;stroke-dasharray:7.0,7.0;" />
        <polygon fill="none" points="458.24,315.38,443.64,330.74,445.48,309.63,458.24,315.38" style="stroke:#000000;stroke-width:1.0;" />
        <!--MD5=[ce4457682a6f91ba619522cd2436c8b9]
@startuml gameObjects

skinparam shadowing false
'skinparam linetype polyline
'skinparam linetype ortho

skinparam class {
    ArrowColor black
    BorderColor black
    BackGroundColor lightgrey
}

skinparam package {
    ArrowColor black
    BorderColor black
    BackGroundColor white
}

    abstract "Entity" as entity {

    }

    together {
        abstract "StaticEntity" as statE {

        }

        abstract "DynamicEntity" as dynE {

        }

        abstract "Watcher" as viewer {

        }
    }

    class "Glass" as glass {

	}

    class "Wall" as wall {

	}

    class "CCTV" as cam {
	}

	class "Exit" as exit {

	}

	class "Money" as money {

	}

    abstract "Character" as charac {

	}

    class "Player" as player {

    }

    abstract "Enemy" as enemy {

	}

    class "Guard" as guard

    class "Cop" as cop

    statE ..|> entity
    dynE ..|> entity

    glass ..|> statE
    wall ..|> statE
    cam ..|> statE
	exit ..|> statE
	money ..|> statE

    charac ..|> dynE

    enemy ..|> charac

    guard ..|> enemy
    cop ..|> enemy
    player ..|> charac

	cam ..|> viewer
    enemy ..|> viewer

@enduml

@startuml gameObjects

skinparam shadowing false

skinparam class {
    ArrowColor black
    BorderColor black
    BackGroundColor lightgrey
}

skinparam package {
    ArrowColor black
    BorderColor black
    BackGroundColor white
}

    abstract "Entity" as entity {

    }

    together {
        abstract "StaticEntity" as statE {

        }

        abstract "DynamicEntity" as dynE {

        }

        abstract "Watcher" as viewer {

        }
    }

    class "Glass" as glass {

	}

    class "Wall" as wall {

	}

    class "CCTV" as cam {
	}

	class "Exit" as exit {

	}

	class "Money" as money {

	}

    abstract "Character" as charac {

	}

    class "Player" as player {

    }

    abstract "Enemy" as enemy {

	}

    class "Guard" as guard

    class "Cop" as cop

    statE ..|> entity
    dynE ..|> entity

    glass ..|> statE
    wall ..|> statE
    cam ..|> statE
	exit ..|> statE
	money ..|> statE

    charac ..|> dynE

    enemy ..|> charac

    guard ..|> enemy
    cop ..|> enemy
    player ..|> charac

	cam ..|> viewer
    enemy ..|> viewer

@enduml

PlantUML version 1.2021.7(Sun May 23 14:40:07 CEST 2021)
(GPL source distribution)
Java Runtime: Java(TM) SE Runtime Environment
JVM: Java HotSpot(TM) 64-Bit Server VM
Default Encoding: Cp1252
Language: fr
Country: CH
-->
    </g>
</svg>