<?xml version="1.0" encoding="UTF-8" standalone="no"?><svg xmlns="http://www.w3.org/2000/svg" xmlns:xlink="http://www.w3.org/1999/xlink" contentScriptType="application/ecmascript" contentStyleType="text/css" height="189px" preserveAspectRatio="none" style="width:388px;height:189px;background:#FFFFFF;" version="1.1" viewBox="0 0 388 189" width="388px" zoomAndPan="magnify">
    <defs />
    <g>
        <!--MD5=[e4faacc5b8aef66b11ab0c816bbbc7f8]
class Scene-->
        <rect codeLine="18" fill="#D3D3D3" height="48" id="Scene" style="stroke:#000000;stroke-width:1.5;" width="67" x="147" y="133" />
        <ellipse cx="162" cy="149" fill="#ADD1B2" rx="11" ry="11" style="stroke:#000000;stroke-width:1.0;" />
        <path d="M164.7656,144.875 Q164.9219,144.6563 165.1094,144.5469 Q165.2969,144.4375 165.5156,144.4375 Q165.8906,144.4375 166.125,144.6953 Q166.3594,144.9531 166.3594,145.5625 L166.3594,147.0156 Q166.3594,147.625 166.125,147.8906 Q165.8906,148.1563 165.5156,148.1563 Q165.1719,148.1563 164.9688,147.9531 Q164.7656,147.7656 164.6563,147.25 Q164.6094,146.8906 164.4219,146.7031 Q164.0938,146.3281 163.4844,146.1094 Q162.875,145.8906 162.25,145.8906 Q161.4844,145.8906 160.8516,146.2188 Q160.2188,146.5469 159.7266,147.2969 Q159.2344,148.0469 159.2344,149.0781 L159.2344,150.1719 Q159.2344,151.4063 160.125,152.2266 Q161.0156,153.0469 162.6094,153.0469 Q163.5469,153.0469 164.2031,152.7969 Q164.5938,152.6406 165.0156,152.2031 Q165.2813,151.9375 165.4297,151.8594 Q165.5781,151.7813 165.7813,151.7813 Q166.1094,151.7813 166.3672,152.0391 Q166.625,152.2969 166.625,152.6406 Q166.625,152.9844 166.2813,153.3906 Q165.7813,153.9688 164.9844,154.2969 Q163.9063,154.75 162.6094,154.75 Q161.0938,154.75 159.8906,154.125 Q158.9063,153.625 158.2188,152.5547 Q157.5313,151.4844 157.5313,150.2031 L157.5313,149.0469 Q157.5313,147.7188 158.1484,146.5703 Q158.7656,145.4219 159.8594,144.8047 Q160.9531,144.1875 162.1875,144.1875 Q162.9219,144.1875 163.5703,144.3516 Q164.2188,144.5156 164.7656,144.875 Z " fill="#000000" /><text fill="#000000" font-family="sans-serif" font-size="12" lengthAdjust="spacing" textLength="35" x="176" y="153.9102">Scene</text>
        <line style="stroke:#000000;stroke-width:1.5;" x1="148" x2="213" y1="165" y2="165" />
        <line style="stroke:#000000;stroke-width:1.5;" x1="148" x2="213" y1="173" y2="173" />
        <!--MD5=[fa22f29c53ed6d2510bea2e0aa245b7f]
class Window-->
        <rect codeLine="20" fill="#D3D3D3" height="48" id="Window" style="stroke:#000000;stroke-width:1.5;" width="76" x="305.5" y="133" />
        <ellipse cx="320.5" cy="149" fill="#ADD1B2" rx="11" ry="11" style="stroke:#000000;stroke-width:1.0;" />
        <path d="M323.2656,144.875 Q323.4219,144.6563 323.6094,144.5469 Q323.7969,144.4375 324.0156,144.4375 Q324.3906,144.4375 324.625,144.6953 Q324.8594,144.9531 324.8594,145.5625 L324.8594,147.0156 Q324.8594,147.625 324.625,147.8906 Q324.3906,148.1563 324.0156,148.1563 Q323.6719,148.1563 323.4688,147.9531 Q323.2656,147.7656 323.1563,147.25 Q323.1094,146.8906 322.9219,146.7031 Q322.5938,146.3281 321.9844,146.1094 Q321.375,145.8906 320.75,145.8906 Q319.9844,145.8906 319.3516,146.2188 Q318.7188,146.5469 318.2266,147.2969 Q317.7344,148.0469 317.7344,149.0781 L317.7344,150.1719 Q317.7344,151.4063 318.625,152.2266 Q319.5156,153.0469 321.1094,153.0469 Q322.0469,153.0469 322.7031,152.7969 Q323.0938,152.6406 323.5156,152.2031 Q323.7813,151.9375 323.9297,151.8594 Q324.0781,151.7813 324.2813,151.7813 Q324.6094,151.7813 324.8672,152.0391 Q325.125,152.2969 325.125,152.6406 Q325.125,152.9844 324.7813,153.3906 Q324.2813,153.9688 323.4844,154.2969 Q322.4063,154.75 321.1094,154.75 Q319.5938,154.75 318.3906,154.125 Q317.4063,153.625 316.7188,152.5547 Q316.0313,151.4844 316.0313,150.2031 L316.0313,149.0469 Q316.0313,147.7188 316.6484,146.5703 Q317.2656,145.4219 318.3594,144.8047 Q319.4531,144.1875 320.6875,144.1875 Q321.4219,144.1875 322.0703,144.3516 Q322.7188,144.5156 323.2656,144.875 Z " fill="#000000" /><text fill="#000000" font-family="sans-serif" font-size="12" lengthAdjust="spacing" textLength="44" x="334.5" y="153.9102">Window</text>
        <line style="stroke:#000000;stroke-width:1.5;" x1="306.5" x2="380.5" y1="165" y2="165" />
        <line style="stroke:#000000;stroke-width:1.5;" x1="306.5" x2="380.5" y1="173" y2="173" />
        <!--MD5=[69cd7bb0186966cdb12d6f14492428f2]
class GameLogic-->
        <rect codeLine="22" fill="#D3D3D3" height="48" id="GameLogic" style="stroke:#000000;stroke-width:1.5;" width="96" x="213.5" y="7" />
        <ellipse cx="228.5" cy="23" fill="#ADD1B2" rx="11" ry="11" style="stroke:#000000;stroke-width:1.0;" />
        <path d="M231.2656,18.875 Q231.4219,18.6563 231.6094,18.5469 Q231.7969,18.4375 232.0156,18.4375 Q232.3906,18.4375 232.625,18.6953 Q232.8594,18.9531 232.8594,19.5625 L232.8594,21.0156 Q232.8594,21.625 232.625,21.8906 Q232.3906,22.1563 232.0156,22.1563 Q231.6719,22.1563 231.4688,21.9531 Q231.2656,21.7656 231.1563,21.25 Q231.1094,20.8906 230.9219,20.7031 Q230.5938,20.3281 229.9844,20.1094 Q229.375,19.8906 228.75,19.8906 Q227.9844,19.8906 227.3516,20.2188 Q226.7188,20.5469 226.2266,21.2969 Q225.7344,22.0469 225.7344,23.0781 L225.7344,24.1719 Q225.7344,25.4063 226.625,26.2266 Q227.5156,27.0469 229.1094,27.0469 Q230.0469,27.0469 230.7031,26.7969 Q231.0938,26.6406 231.5156,26.2031 Q231.7813,25.9375 231.9297,25.8594 Q232.0781,25.7813 232.2813,25.7813 Q232.6094,25.7813 232.8672,26.0391 Q233.125,26.2969 233.125,26.6406 Q233.125,26.9844 232.7813,27.3906 Q232.2813,27.9688 231.4844,28.2969 Q230.4063,28.75 229.1094,28.75 Q227.5938,28.75 226.3906,28.125 Q225.4063,27.625 224.7188,26.5547 Q224.0313,25.4844 224.0313,24.2031 L224.0313,23.0469 Q224.0313,21.7188 224.6484,20.5703 Q225.2656,19.4219 226.3594,18.8047 Q227.4531,18.1875 228.6875,18.1875 Q229.4219,18.1875 230.0703,18.3516 Q230.7188,18.5156 231.2656,18.875 Z " fill="#000000" /><text fill="#000000" font-family="sans-serif" font-size="12" lengthAdjust="spacing" textLength="64" x="242.5" y="27.9102">GameLogic</text>
        <line style="stroke:#000000;stroke-width:1.5;" x1="214.5" x2="308.5" y1="39" y2="39" />
        <line style="stroke:#000000;stroke-width:1.5;" x1="214.5" x2="308.5" y1="47" y2="47" />
        <!--MD5=[be996cdb8e6bf2fc7cb89c555f2cd144]
class Entity-->
        <rect codeLine="24" fill="#D3D3D3" height="48" id="Entity" style="stroke:#000000;stroke-width:1.5;" width="61" x="7" y="133" />
        <ellipse cx="22" cy="149" fill="#ADD1B2" rx="11" ry="11" style="stroke:#000000;stroke-width:1.0;" />
        <path d="M24.7656,144.875 Q24.9219,144.6563 25.1094,144.5469 Q25.2969,144.4375 25.5156,144.4375 Q25.8906,144.4375 26.125,144.6953 Q26.3594,144.9531 26.3594,145.5625 L26.3594,147.0156 Q26.3594,147.625 26.125,147.8906 Q25.8906,148.1563 25.5156,148.1563 Q25.1719,148.1563 24.9688,147.9531 Q24.7656,147.7656 24.6563,147.25 Q24.6094,146.8906 24.4219,146.7031 Q24.0938,146.3281 23.4844,146.1094 Q22.875,145.8906 22.25,145.8906 Q21.4844,145.8906 20.8516,146.2188 Q20.2188,146.5469 19.7266,147.2969 Q19.2344,148.0469 19.2344,149.0781 L19.2344,150.1719 Q19.2344,151.4063 20.125,152.2266 Q21.0156,153.0469 22.6094,153.0469 Q23.5469,153.0469 24.2031,152.7969 Q24.5938,152.6406 25.0156,152.2031 Q25.2813,151.9375 25.4297,151.8594 Q25.5781,151.7813 25.7813,151.7813 Q26.1094,151.7813 26.3672,152.0391 Q26.625,152.2969 26.625,152.6406 Q26.625,152.9844 26.2813,153.3906 Q25.7813,153.9688 24.9844,154.2969 Q23.9063,154.75 22.6094,154.75 Q21.0938,154.75 19.8906,154.125 Q18.9063,153.625 18.2188,152.5547 Q17.5313,151.4844 17.5313,150.2031 L17.5313,149.0469 Q17.5313,147.7188 18.1484,146.5703 Q18.7656,145.4219 19.8594,144.8047 Q20.9531,144.1875 22.1875,144.1875 Q22.9219,144.1875 23.5703,144.3516 Q24.2188,144.5156 24.7656,144.875 Z " fill="#000000" /><text fill="#000000" font-family="sans-serif" font-size="12" lengthAdjust="spacing" textLength="29" x="36" y="153.9102">Entity</text>
        <line style="stroke:#000000;stroke-width:1.5;" x1="8" x2="67" y1="165" y2="165" />
        <line style="stroke:#000000;stroke-width:1.5;" x1="8" x2="67" y1="173" y2="173" />
        <!--MD5=[aca92b442b418c9a13f86c1b936f45c5]
link Scene to Window-->
        <path codeLine="26" d="M225.5372,175.8003 C225.5372,175.8003 232.07,177.5 234.75,178 C256.59,182.08 262.85,181.8 284.75,178 C287.42,177.54 290.13,176.97 292.84,176.31 " fill="none" id="Scene-Window" style="stroke:#000000;stroke-width:1.0;" />
        <polygon fill="#000000" points="305.46,172.72,295.7089,171.3361,300.6509,174.0885,297.8985,179.0306,305.46,172.72" style="stroke:#000000;stroke-width:1.0;" />
        <line style="stroke:#000000;stroke-width:1.0;" x1="300.6509" x2="292.955" y1="174.0885" y2="176.275" />
        <polygon fill="#FFFFFF" points="214.09,172.2,218.6135,177.8159,225.5372,175.8003,221.0137,170.1844,214.09,172.2" style="stroke:#000000;stroke-width:1.0;" /><text fill="#000000" font-family="sans-serif" font-size="13" lengthAdjust="spacing" textLength="48" x="235.75" y="174.4951">observer</text>
        <!--MD5=[aca92b442b418c9a13f86c1b936f45c5]
link Scene to Window-->
        <path codeLine="27" d="M227.42,157 C247.74,157 293.49,157 293.49,157 " fill="none" id="Scene-Window-1" style="stroke:#000000;stroke-width:1.0;" />
        <polygon fill="#FFFFFF" points="305.49,157,299.49,153,293.49,157,299.49,161,305.49,157" style="stroke:#000000;stroke-width:1.0;" />
        <polygon fill="#000000" points="214.27,157,223.27,161,219.27,157,223.27,153,214.27,157" style="stroke:#000000;stroke-width:1.0;" />
        <line style="stroke:#000000;stroke-width:1.0;" x1="219.27" x2="227.27" y1="157" y2="157" /><text fill="#000000" font-family="sans-serif" font-size="13" lengthAdjust="spacing" textLength="55" x="232.25" y="150.4951">theScene</text>
        <!--MD5=[ec7891d7667e7e87bf0171cdbee8e6c9]
link GameLogic to Window-->
        <path codeLine="28" d="M284.08,66.14 C295.44,83.33 321.4502,122.6611 321.4502,122.6611 " fill="none" id="GameLogic-Window" style="stroke:#000000;stroke-width:1.0;" />
        <polygon fill="#FFFFFF" points="328.07,132.67,328.0964,125.4589,321.4502,122.6611,321.4238,129.8722,328.07,132.67" style="stroke:#000000;stroke-width:1.0;" />
        <polygon fill="#000000" points="276.73,55.03,278.3586,64.7433,279.4883,59.2004,285.0312,60.33,276.73,55.03" style="stroke:#000000;stroke-width:1.0;" />
        <line style="stroke:#000000;stroke-width:1.0;" x1="279.4883" x2="283.905" y1="59.2004" y2="65.88" /><text fill="#000000" font-family="sans-serif" font-size="13" lengthAdjust="spacing" textLength="73" x="307.5" y="99.4951">theController</text>
        <!--MD5=[d1e9fe6615eb0aa572dd7bf8c62d0b86]
link GameLogic to Scene-->
        <path codeLine="29" d="M239.5062,65.2029 C239.5062,65.2029 230.5,78.89 226.5,85 C218.66,96.98 210.12,110.14 202.55,121.83 " fill="none" id="GameLogic-Scene" style="stroke:#000000;stroke-width:1.0;" />
        <polygon fill="#000000" points="195.37,132.94,203.6126,127.5493,198.0824,128.7396,196.892,123.2095,195.37,132.94" style="stroke:#000000;stroke-width:1.0;" />
        <line style="stroke:#000000;stroke-width:1.0;" x1="198.0824" x2="202.425" y1="128.7396" y2="122.03" />
        <polygon fill="#FFFFFF" points="246.12,55.19,239.4755,57.9919,239.5062,65.2029,246.1507,62.401,246.12,55.19" style="stroke:#000000;stroke-width:1.0;" /><text fill="#000000" font-family="sans-serif" font-size="13" lengthAdjust="spacing" textLength="55" x="227.5" y="99.4951">theScene</text>
        <!--MD5=[d5569a9c9c67ebb39a06ebe0de302e54]
link Entity to Scene-->
        <path codeLine="31" d="M81.39,157 C97.94,157 134.88,157 134.88,157 " fill="none" id="Entity-Scene" style="stroke:#000000;stroke-width:1.0;" />
        <polygon fill="#FFFFFF" points="146.88,157,140.88,153,134.88,157,140.88,161,146.88,157" style="stroke:#000000;stroke-width:1.0;" />
        <polygon fill="#000000" points="68.18,157,77.18,161,73.18,157,77.18,153,68.18,157" style="stroke:#000000;stroke-width:1.0;" />
        <line style="stroke:#000000;stroke-width:1.0;" x1="73.18" x2="81.18" y1="157" y2="157" /><text fill="#000000" font-family="sans-serif" font-size="13" lengthAdjust="spacing" textLength="42" x="86.5" y="150.4951">entities</text>
        <!--MD5=[0cb5e4be20c0ce18d5e7d051b1730075]
@startuml simple

skinparam shadowing false
'skinparam linetype polyline
'skinparam linetype ortho

skinparam class {
    ArrowColor black
    BorderColor black
    BackGroundColor lightgrey
}

skinparam package {
    ArrowColor black
    BorderColor black
    BackGroundColor white
}

class Scene

class Window

class GameLogic

class Entity

Scene o-right-> Window : "observer"
Window o-left-> Scene : "theScene"
Window o-up-> GameLogic : "theController"
GameLogic o-down-> Scene : "theScene"

Scene o-left-> Entity : "entities"

@enduml

@startuml simple

skinparam shadowing false

skinparam class {
    ArrowColor black
    BorderColor black
    BackGroundColor lightgrey
}

skinparam package {
    ArrowColor black
    BorderColor black
    BackGroundColor white
}

class Scene

class Window

class GameLogic

class Entity

Scene o-right-> Window : "observer"
Window o-left-> Scene : "theScene"
Window o-up-> GameLogic : "theController"
GameLogic o-down-> Scene : "theScene"

Scene o-left-> Entity : "entities"

@enduml

PlantUML version 1.2021.7(Sun May 23 14:40:07 CEST 2021)
(GPL source distribution)
Java Runtime: Java(TM) SE Runtime Environment
JVM: Java HotSpot(TM) 64-Bit Server VM
Default Encoding: Cp1252
Language: fr
Country: CH
-->
    </g>
</svg>